<svg width="114" height="36" viewBox="0 0 114 36" fill="none" xmlns="http://www.w3.org/2000/svg">
<path d="M4.912 23.192C4.09067 23.192 3.36533 23.0533 2.736 22.776C2.10667 22.488 1.61067 22.0827 1.248 21.56C0.885333 21.0267 0.698667 20.3813 0.688 19.624H2.848C2.86933 20.1467 3.056 20.5893 3.408 20.952C3.77067 21.304 4.26667 21.48 4.896 21.48C5.44 21.48 5.872 21.352 6.192 21.096C6.512 20.8293 6.672 20.4773 6.672 20.04C6.672 19.5813 6.528 19.224 6.24 18.968C5.96267 18.712 5.58933 18.504 5.12 18.344C4.65067 18.184 4.14933 18.0133 3.616 17.832C2.752 17.5333 2.09067 17.1493 1.632 16.68C1.184 16.2107 0.96 15.5867 0.96 14.808C0.949333 14.1467 1.104 13.5813 1.424 13.112C1.75467 12.632 2.20267 12.264 2.768 12.008C3.33333 11.7413 3.984 11.608 4.72 11.608C5.46667 11.608 6.12267 11.7413 6.688 12.008C7.264 12.2747 7.712 12.648 8.032 13.128C8.36267 13.608 8.53867 14.1787 8.56 14.84H6.368C6.35733 14.4453 6.20267 14.0987 5.904 13.8C5.616 13.4907 5.21067 13.336 4.688 13.336C4.24 13.3253 3.86133 13.4373 3.552 13.672C3.25333 13.896 3.104 14.2267 3.104 14.664C3.104 15.0373 3.22133 15.336 3.456 15.56C3.69067 15.7733 4.01067 15.9547 4.416 16.104C4.82133 16.2533 5.28533 16.4133 5.808 16.584C6.36267 16.776 6.86933 17 7.328 17.256C7.78667 17.512 8.15467 17.8533 8.432 18.28C8.70933 18.696 8.848 19.2347 8.848 19.896C8.848 20.4827 8.69867 21.0267 8.4 21.528C8.10133 22.0293 7.65867 22.4347 7.072 22.744C6.48533 23.0427 5.76533 23.192 4.912 23.192ZM11.6909 13.832C11.3175 13.832 11.0082 13.72 10.7629 13.496C10.5282 13.272 10.4109 12.9893 10.4109 12.648C10.4109 12.3067 10.5282 12.0293 10.7629 11.816C11.0082 11.592 11.3175 11.48 11.6909 11.48C12.0642 11.48 12.3682 11.592 12.6029 11.816C12.8482 12.0293 12.9709 12.3067 12.9709 12.648C12.9709 12.9893 12.8482 13.272 12.6029 13.496C12.3682 13.72 12.0642 13.832 11.6909 13.832ZM10.6669 23V15.064H12.7149V23H10.6669ZM18.2125 20.632C17.8285 20.632 17.4712 20.5893 17.1405 20.504L16.5485 21.096C16.7298 21.192 16.9752 21.272 17.2845 21.336C17.5938 21.4 18.0952 21.464 18.7885 21.528C19.8445 21.624 20.6125 21.8747 21.0925 22.28C21.5725 22.6853 21.8125 23.2453 21.8125 23.96C21.8125 24.4293 21.6845 24.872 21.4285 25.288C21.1725 25.7147 20.7778 26.056 20.2445 26.312C19.7112 26.5787 19.0285 26.712 18.1965 26.712C17.0658 26.712 16.1538 26.4987 15.4605 26.072C14.7672 25.656 14.4205 25.0267 14.4205 24.184C14.4205 23.4693 14.7672 22.8507 15.4605 22.328C15.2472 22.232 15.0605 22.1307 14.9005 22.024C14.7512 21.9173 14.6178 21.8053 14.5005 21.688V21.32L15.8925 19.848C15.2738 19.304 14.9645 18.6053 14.9645 17.752C14.9645 17.2187 15.0925 16.7333 15.3485 16.296C15.6152 15.8587 15.9885 15.512 16.4685 15.256C16.9485 15 17.5298 14.872 18.2125 14.872C18.6605 14.872 19.0765 14.936 19.4605 15.064H22.4685V16.312L21.1085 16.408C21.3218 16.8133 21.4285 17.2613 21.4285 17.752C21.4285 18.2853 21.3005 18.7707 21.0445 19.208C20.7885 19.6453 20.4152 19.992 19.9245 20.248C19.4445 20.504 18.8738 20.632 18.2125 20.632ZM18.2125 19.064C18.6285 19.064 18.9698 18.952 19.2365 18.728C19.5138 18.504 19.6525 18.184 19.6525 17.768C19.6525 17.352 19.5138 17.032 19.2365 16.808C18.9698 16.584 18.6285 16.472 18.2125 16.472C17.7752 16.472 17.4232 16.584 17.1565 16.808C16.8898 17.032 16.7565 17.352 16.7565 17.768C16.7565 18.184 16.8898 18.504 17.1565 18.728C17.4232 18.952 17.7752 19.064 18.2125 19.064ZM16.2925 23.976C16.2925 24.3707 16.4738 24.664 16.8365 24.856C17.2098 25.0587 17.6632 25.16 18.1965 25.16C18.7085 25.16 19.1245 25.0533 19.4445 24.84C19.7645 24.6373 19.9245 24.36 19.9245 24.008C19.9245 23.72 19.8178 23.48 19.6045 23.288C19.4018 23.096 18.9912 22.9787 18.3725 22.936C17.9352 22.904 17.5298 22.856 17.1565 22.792C16.8472 22.9627 16.6232 23.1493 16.4845 23.352C16.3565 23.5547 16.2925 23.7627 16.2925 23.976ZM23.9619 23V15.064H25.7699L25.9299 16.408C26.1752 15.9387 26.5272 15.5653 26.9859 15.288C27.4552 15.0107 28.0045 14.872 28.6339 14.872C29.6152 14.872 30.3779 15.1813 30.9219 15.8C31.4659 16.4187 31.7379 17.3253 31.7379 18.52V23H29.6899V18.712C29.6899 18.0293 29.5512 17.5067 29.2739 17.144C28.9965 16.7813 28.5645 16.6 27.9779 16.6C27.4019 16.6 26.9272 16.8027 26.5539 17.208C26.1912 17.6133 26.0099 18.1787 26.0099 18.904V23H23.9619ZM38.6128 13.832C38.2394 13.832 37.9301 13.72 37.6848 13.496C37.4501 13.272 37.3328 12.9893 37.3328 12.648C37.3328 12.3067 37.4501 12.0293 37.6848 11.816C37.9301 11.592 38.2394 11.48 38.6128 11.48C38.9861 11.48 39.2901 11.592 39.5248 11.816C39.7701 12.0293 39.8928 12.3067 39.8928 12.648C39.8928 12.9893 39.7701 13.272 39.5248 13.496C39.2901 13.72 38.9861 13.832 38.6128 13.832ZM37.5888 23V15.064H39.6368V23H37.5888ZM41.7744 23V15.064H43.5824L43.7424 16.408C43.9877 15.9387 44.3397 15.5653 44.7984 15.288C45.2677 15.0107 45.817 14.872 46.4464 14.872C47.4277 14.872 48.1904 15.1813 48.7344 15.8C49.2784 16.4187 49.5504 17.3253 49.5504 18.52V23H47.5024V18.712C47.5024 18.0293 47.3637 17.5067 47.0864 17.144C46.809 16.7813 46.377 16.6 45.7904 16.6C45.2144 16.6 44.7397 16.8027 44.3664 17.208C44.0037 17.6133 43.8224 18.1787 43.8224 18.904V23H41.7744Z" fill="white"/>
<circle cx="96" cy="18" r="18" fill="#BE123C"/>
<path fill-rule="evenodd" clip-rule="evenodd" d="M87.6 14.4C87.6 13.7373 88.1372 13.2 88.8 13.2H103.2C103.863 13.2 104.4 13.7373 104.4 14.4C104.4 15.0628 103.863 15.6 103.2 15.6H88.8C88.1372 15.6 87.6 15.0628 87.6 14.4Z" fill="white"/>
<path fill-rule="evenodd" clip-rule="evenodd" d="M87.6 21.6C87.6 20.9373 88.1372 20.4 88.8 20.4H103.2C103.863 20.4 104.4 20.9373 104.4 21.6C104.4 22.2628 103.863 22.8 103.2 22.8H88.8C88.1372 22.8 87.6 22.2628 87.6 21.6Z" fill="white"/>
</svg>
