<svg width="111" height="19" viewBox="0 0 111 19" fill="none" xmlns="http://www.w3.org/2000/svg">
<path d="M0.632 18V1.2H4.28L9.632 11.856L14.912 1.2H18.56V18H15.488V6.408L10.808 15.6H8.384L3.704 6.408V18H0.632ZM27.4595 18.288C26.3075 18.288 25.2675 18.024 24.3395 17.496C23.4275 16.968 22.6995 16.24 22.1555 15.312C21.6275 14.368 21.3635 13.28 21.3635 12.048C21.3635 10.816 21.6355 9.736 22.1795 8.808C22.7235 7.864 23.4515 7.128 24.3635 6.6C25.2915 6.072 26.3315 5.808 27.4835 5.808C28.6195 5.808 29.6435 6.072 30.5555 6.6C31.4835 7.128 32.2115 7.864 32.7395 8.808C33.2835 9.736 33.5555 10.816 33.5555 12.048C33.5555 13.28 33.2835 14.368 32.7395 15.312C32.2115 16.24 31.4835 16.968 30.5555 17.496C29.6275 18.024 28.5955 18.288 27.4595 18.288ZM27.4595 15.624C28.2595 15.624 28.9555 15.328 29.5475 14.736C30.1395 14.128 30.4355 13.232 30.4355 12.048C30.4355 10.864 30.1395 9.976 29.5475 9.384C28.9555 8.776 28.2675 8.472 27.4835 8.472C26.6675 8.472 25.9635 8.776 25.3715 9.384C24.7955 9.976 24.5075 10.864 24.5075 12.048C24.5075 13.232 24.7955 14.128 25.3715 14.736C25.9635 15.328 26.6595 15.624 27.4595 15.624ZM38.9323 18L34.5643 6.096H37.7803L40.8043 15.096L43.8283 6.096H47.0443L42.6523 18H38.9323ZM50.6379 4.248C50.0779 4.248 49.6139 4.08 49.2459 3.744C48.8939 3.408 48.7179 2.984 48.7179 2.472C48.7179 1.96 48.8939 1.544 49.2459 1.224C49.6139 0.887999 50.0779 0.719999 50.6379 0.719999C51.1979 0.719999 51.6539 0.887999 52.0059 1.224C52.3739 1.544 52.5579 1.96 52.5579 2.472C52.5579 2.984 52.3739 3.408 52.0059 3.744C51.6539 4.08 51.1979 4.248 50.6379 4.248ZM49.1019 18V6.096H52.1739V18H49.1019ZM61.1643 18.288C59.9643 18.288 58.9003 18.032 57.9723 17.52C57.0443 17.008 56.3163 16.288 55.7883 15.36C55.2603 14.432 54.9963 13.36 54.9963 12.144C54.9963 10.912 55.2523 9.816 55.7643 8.856C56.2923 7.896 57.0123 7.152 57.9243 6.624C58.8523 6.08 59.9403 5.808 61.1883 5.808C62.3563 5.808 63.3883 6.064 64.2843 6.576C65.1803 7.088 65.8763 7.792 66.3723 8.688C66.8843 9.568 67.1403 10.552 67.1403 11.64C67.1403 11.816 67.1323 12 67.1163 12.192C67.1163 12.384 67.1083 12.584 67.0923 12.792H58.0443C58.1083 13.72 58.4283 14.448 59.0043 14.976C59.5963 15.504 60.3083 15.768 61.1403 15.768C61.7643 15.768 62.2843 15.632 62.7003 15.36C63.1323 15.072 63.4523 14.704 63.6603 14.256H66.7803C66.5563 15.008 66.1803 15.696 65.6523 16.32C65.1403 16.928 64.5003 17.408 63.7323 17.76C62.9803 18.112 62.1243 18.288 61.1643 18.288ZM61.1883 8.304C60.4363 8.304 59.7723 8.52 59.1963 8.952C58.6203 9.368 58.2523 10.008 58.0923 10.872H64.0203C63.9723 10.088 63.6843 9.464 63.1563 9C62.6283 8.536 61.9723 8.304 61.1883 8.304ZM69.7961 18V1.2H76.5401C78.2841 1.2 79.6121 1.608 80.5241 2.424C81.4521 3.224 81.9161 4.256 81.9161 5.52C81.9161 6.576 81.6281 7.424 81.0521 8.064C80.4921 8.688 79.8041 9.112 78.9881 9.336C79.9481 9.528 80.7401 10.008 81.3641 10.776C81.9881 11.528 82.3001 12.408 82.3001 13.416C82.3001 14.744 81.8201 15.84 80.8601 16.704C79.9001 17.568 78.5401 18 76.7801 18H69.7961ZM72.8681 8.256H76.0841C76.9481 8.256 77.6121 8.056 78.0761 7.656C78.5401 7.256 78.7721 6.688 78.7721 5.952C78.7721 5.248 78.5401 4.696 78.0761 4.296C77.6281 3.88 76.9481 3.672 76.0361 3.672H72.8681V8.256ZM72.8681 15.504H76.3001C77.2121 15.504 77.9161 15.296 78.4121 14.88C78.9241 14.448 79.1801 13.848 79.1801 13.08C79.1801 12.296 78.9161 11.68 78.3881 11.232C77.8601 10.784 77.1481 10.56 76.2521 10.56H72.8681V15.504ZM90.5767 18.288C89.4247 18.288 88.3847 18.024 87.4567 17.496C86.5447 16.968 85.8167 16.24 85.2727 15.312C84.7447 14.368 84.4807 13.28 84.4807 12.048C84.4807 10.816 84.7527 9.736 85.2967 8.808C85.8407 7.864 86.5687 7.128 87.4807 6.6C88.4087 6.072 89.4487 5.808 90.6007 5.808C91.7367 5.808 92.7607 6.072 93.6727 6.6C94.6007 7.128 95.3287 7.864 95.8567 8.808C96.4007 9.736 96.6727 10.816 96.6727 12.048C96.6727 13.28 96.4007 14.368 95.8567 15.312C95.3287 16.24 94.6007 16.968 93.6727 17.496C92.7447 18.024 91.7127 18.288 90.5767 18.288ZM90.5767 15.624C91.3767 15.624 92.0727 15.328 92.6647 14.736C93.2567 14.128 93.5527 13.232 93.5527 12.048C93.5527 10.864 93.2567 9.976 92.6647 9.384C92.0727 8.776 91.3847 8.472 90.6007 8.472C89.7847 8.472 89.0807 8.776 88.4887 9.384C87.9127 9.976 87.6247 10.864 87.6247 12.048C87.6247 13.232 87.9127 14.128 88.4887 14.736C89.0807 15.328 89.7767 15.624 90.5767 15.624ZM97.6586 18L101.979 12.048L97.6586 6.096H100.947L103.971 10.32L106.971 6.096H110.283L105.939 12.048L110.283 18H106.971L103.971 13.776L100.947 18H97.6586Z" fill="white"/>
</svg>
